<svg xmlns="http://www.w3.org/2000/svg" width="200" height="200" viewBox="0 0 200 200">
  <g transform="translate(0,192) scale(0.100000,-0.100000)" fill="#000000" stroke="none">
    <path d="M1028 1714 c-3 -5 -11 -47 -18 -94 -9 -62 -20 -97 -41 -129 -36 -55
    -40 -128 -9 -178 25 -42 19 -41 -30 3 -38 35 -41 35 -77 24 -241 -77 -401
    -329 -363 -572 14 -95 64 -199 129 -270 87 -95 184 -139 307 -139 122 0 184
    26 184 76 0 33 -27 45 -97 45 -32 0 -74 5 -93 10 -43 12 -130 65 -130 80 0 6
    80 10 230 10 127 0 230 2 230 5 0 17 -33 66 -55 84 -23 17 -27 29 -29 83 -1
    48 -9 76 -31 116 -45 84 -96 119 -210 148 l-30 8 30 4 c135 18 280 -112 293
    -263 2 -30 9 -55 13 -55 13 0 69 -91 69 -112 0 -16 10 -18 81 -18 70 0 80 2
    75 16 -3 9 -6 20 -6 24 0 5 -16 25 -36 44 l-36 35 7 131 c7 115 10 135 30 158
    40 48 58 96 63 166 l5 69 -32 -6 c-40 -8 -40 7 -1 23 42 17 87 72 100 121 13
    47 3 88 -34 138 -17 23 -28 57 -37 119 -6 48 -15 90 -18 94 -3 4 -27 -19 -52
    -50 l-46 -57 -118 0 c-130 1 -117 -5 -186 84 -15 18 -29 29 -31 25z m132 -269
    c14 -17 5 -51 -17 -59 -15 -6 -53 19 -53 35 0 12 30 39 44 39 8 0 19 -7 26
    -15z m230 -4 c12 -23 5 -47 -16 -55 -21 -8 -42 3 -49 25 -14 42 44 68 65 30z"/>
  </g>
</svg>
